<?xml version="1.0" encoding="utf-8"?>
<!-- Generator: Adobe Illustrator 27.5.0, SVG Export Plug-In . SVG Version: 6.00 Build 0)  -->
<svg version="1.1" xmlns="http://www.w3.org/2000/svg" xmlns:xlink="http://www.w3.org/1999/xlink" x="0px" y="0px"
	 viewBox="0 0 500 500" style="enable-background:new 0 0 500 500;" xml:space="preserve">
<g id="BACKGROUND">
	<rect style="fill-rule:evenodd;clip-rule:evenodd;fill:#FFFFFF;" width="500" height="500"/>
</g>
<g id="OBJECTS">
	<g>
		<g>
			<path style="fill-rule:evenodd;clip-rule:evenodd;fill:#E0D1D1;" d="M149.685,291.656c15.411-39.642,37.667-68.609,86.497-69.061
				c48.831-0.45,85.58,5.515,104.581,69.938C345.867,309.836,169.714,296.494,149.685,291.656z"/>
			<path style="fill-rule:evenodd;clip-rule:evenodd;fill:#143836;" d="M170.674,251.227c14.716-19.643,34.556-28.346,65.509-28.631
				s51.681-1.485,71.253,15.185c-3.243,5.838-17.977,21.96-45.827,28.237c10.795,3.49,22.486,12.602,22.486,12.602s0,0-13.263-0.522
				c-10.918-0.431-17.855-6.203-20.707-10.003c-0.363,0.051-0.725,0.102-1.091,0.149c-0.741,0.097-1.478,0.185-2.213,0.268
				c-1.443,4.727-5.566,11.907-14.581,16.319c-11.921,5.835-11.921,5.835-11.921,5.835s7.538-14.034,16.415-21.418
				C202.95,270.396,174.918,255.759,170.674,251.227z"/>
			<path style="fill-rule:evenodd;clip-rule:evenodd;fill:#BA291C;" d="M195.759,224.241c-15.972,8.579-29.028,26.193-29.028,26.193
				s36.712,19.974,81.653,14.096c44.94-5.878,64.761-29.771,64.761-29.771S259.304,197.737,195.759,224.241z"/>
			<path style="fill-rule:evenodd;clip-rule:evenodd;fill:#143836;" d="M195.759,224.241c-1.778,0.955-3.522,2.023-5.214,3.167
				c5.815,15.52,17.432,25.607,46.033,27.255c20.441,1.179,35.466-5.487,42.859-13.475c4.9-5.295,7.155-11.734,7.851-18.794
				C265.556,214.755,232.261,209.017,195.759,224.241z"/>
			<path style="fill-rule:evenodd;clip-rule:evenodd;fill:#BA291C;" d="M244.611,258.397c-7.397-0.998-15.252,1.857-20.787,12.317
				c-5.534,10.46-4.031,17.759-4.031,17.759S249.62,279.225,244.611,258.397z"/>
			<path style="fill-rule:evenodd;clip-rule:evenodd;fill:#BA291C;" d="M251.775,259.995c6.482-3.703,14.833-4.006,23.891,3.609
				c9.058,7.616,10.405,14.946,10.405,14.946S254.954,281.181,251.775,259.995z"/>
			<path style="fill-rule:evenodd;clip-rule:evenodd;fill:#143836;" d="M244.58,262.46c-9.913,6.03-13.258,11.898-20.223,20.748
				c3.715-10.355,9.275-17.742,18.257-24.052c0.913-0.542,2.093-0.242,2.634,0.67C245.791,260.738,245.492,261.918,244.58,262.46z"
				/>
			<path style="fill-rule:evenodd;clip-rule:evenodd;fill:#143836;" d="M304.939,286.34c-0.404-1.741-5.92-17.665-5.771-18.878
				c0.38-3.106,4.635-7.039,6.642-9.143l-0.037,0.062c0.292-0.336,0.117-0.184,0.535-0.44c0.449,2.023-4.504,6.643-4.442,9.414
				c0,0.005,6.696,17.23,6.893,17.807c0.227,0.97-0.445,2.02-1.5,2.345C306.204,287.831,305.165,287.309,304.939,286.34z"/>
			<g>
				<path style="fill-rule:evenodd;clip-rule:evenodd;fill:#143836;" d="M174.353,241.505c4.251,3.652,11.814,7.2,20.681,10.065
					c10.465,3.381,22.678,5.771,33.404,6.245c0.747,0.035,1.324,0.669,1.289,1.415c-0.035,0.746-0.667,1.322-1.413,1.287
					c-10.964-0.483-23.431-2.923-34.103-6.37c-9.201-2.972-17.117-6.721-21.685-10.656
					C173.098,242.855,173.709,242.19,174.353,241.505z"/>
				<path style="fill-rule:evenodd;clip-rule:evenodd;fill:#143836;" d="M307.697,231.484c-3.594,3.585-11.851,10.59-20.089,16.465
					c-6.535,4.662-13.118,8.651-17.492,9.76c-0.722,0.181-1.454-0.258-1.635-0.981c-0.182-0.723,0.257-1.455,0.98-1.636
					c3.997-1.013,10.271-4.845,16.581-9.345c7.767-5.54,15.499-12.036,19.173-15.599
					C306.113,230.619,306.945,231.067,307.697,231.484z"/>
			</g>
			<path style="fill-rule:evenodd;clip-rule:evenodd;fill:#143836;" d="M185.058,286.129c0.156-0.597,2.448-11.529,2.805-12.55
				c-1.452-1.147-5.877-4.474-5.031-6.17c1.129,0.365,2.576,1.841,3.091,2.193c2.554,1.754,3.897,2.196,4.478,3.001
				c0.77,1.065-0.764,8.019-1.62,14.248c-0.201,1.027-1.195,1.699-2.223,1.5C185.53,288.152,184.858,287.157,185.058,286.129
				L185.058,286.129z M187.941,273.642c0.012,0.011,0.027,0.022,0.05,0.039L187.941,273.642z"/>
			<path style="fill-rule:evenodd;clip-rule:evenodd;fill:#143836;" d="M250.33,257.393c9.674,3.197,18.413,8.686,26.013,15.476
				c2.043,1.825,1.584,1.256,2.557,2.815c-1.828-0.541-0.889-0.183-3.415-1.629c-9.347-5.352-15.303-9.599-25.991-12.356
				c-1.188-0.231-1.965-1.382-1.735-2.571C247.991,257.939,249.141,257.162,250.33,257.393z"/>
			<path style="fill-rule:evenodd;clip-rule:evenodd;fill:#BA291C;" d="M246.447,251.317c-5.251,0.741-9.033,4.71-8.447,8.864
				c0.587,4.154,5.318,6.92,10.571,6.179c5.251-0.741,9.033-4.71,8.447-8.863C256.431,253.343,251.698,250.576,246.447,251.317z"/>
			<path style="fill-rule:evenodd;clip-rule:evenodd;fill:#143836;" d="M244.007,245.025c5.798,3.108,7.416,10.214,4.736,15.837
				c-1.77-3.9-1.953-9.814-6.351-11.182c-1.287-0.446-1.967-1.85-1.52-3.135C241.317,245.26,242.721,244.579,244.007,245.025z"/>
			<path style="fill-rule:evenodd;clip-rule:evenodd;fill:#143836;" d="M237.965,258.462c3.429,3.886,6.824,6.955,12.624,5.241
				c3.897-1.15,4.93-4.732,6.393-7.926l0.917,1.81c1.548,6.181-7.212,15.83-16.51,8.612
				C238.368,263.854,237.478,262.01,237.965,258.462z"/>
			<path style="fill-rule:evenodd;clip-rule:evenodd;fill:#143836;" d="M238.006,258.456c0.018,0.132,0.041,0.265,0.067,0.396
				c0.476,2.404,2.132,4.432,4.261,5.773c2.131,1.344,4.731,2.001,7.093,1.668c0.15-0.021,0.298-0.046,0.447-0.075
				c2.212-0.438,4.142-1.877,5.436-3.788c1.299-1.919,1.961-4.313,1.631-6.647l0.081-0.011c0.332,2.355-0.334,4.769-1.645,6.703
				c-1.307,1.929-3.253,3.381-5.489,3.824c-0.148,0.029-0.298,0.054-0.45,0.075c-2.382,0.337-5.004-0.326-7.149-1.679
				c-2.147-1.354-3.818-3.399-4.299-5.828c-0.025-0.131-0.049-0.265-0.067-0.399L238.006,258.456z"/>
		</g>
		<g>
			<path style="fill-rule:evenodd;clip-rule:evenodd;fill:#EECAAA;" d="M281.301,186.346c5.079-9.683,14.582-16.29,23.229-7.033
				c10.966,11.736-8.404,35.091-20.126,29.275C275.558,204.199,277.163,194.235,281.301,186.346z"/>
			<path style="fill-rule:evenodd;clip-rule:evenodd;fill:#D38A72;" d="M297.957,196.855c1.769-2.023,3.164-4.667,3.62-7.217
				c-0.208-0.232-0.338-0.537-0.345-0.874c-0.047-2.067-1.52-3.625-3.433-4.325c-0.833-0.305-1.743-0.451-2.657-0.411
				c-0.906,0.039-1.818,0.261-2.663,0.691c-0.715,0.364-4.473,2.875-5.055,3.563c0.17,1.198,0.326,2.397,0.468,3.6
				c0.09,0.768,0.174,1.542,0.25,2.319c0.189,0.005,0.365,0.013,0.53,0.024c1.996,0.144,6.678-1.213,7.805-0.063
				C297.184,194.882,297.683,195.778,297.957,196.855z"/>
			<path style="fill-rule:evenodd;clip-rule:evenodd;fill:#143836;" d="M303.938,188.707c0.016,0.747-0.578,1.366-1.324,1.382
				c-0.747,0.016-1.366-0.577-1.382-1.325c-0.047-2.067-1.52-3.625-3.433-4.325c-0.833-0.305-1.743-0.451-2.657-0.411
				c-0.906,0.039-1.818,0.261-2.663,0.691c-2.198,1.117-3.961,3.69-4.081,8.191c0.706-0.355,1.538-0.71,2.519-0.706
				c0.308,0.002,0.588,0.012,0.844,0.029c1.996,0.144,3.59,0.779,4.717,1.93c1.139,1.162,1.739,2.783,1.731,4.88
				c-0.001,0.27-0.011,0.53-0.028,0.778c-0.056,0.745-0.705,1.305-1.45,1.249c-0.745-0.055-1.305-0.703-1.249-1.449
				c0.017-0.224,0.024-0.423,0.025-0.597c0.006-1.344-0.326-2.329-0.957-2.973c-0.642-0.654-1.653-1.024-2.989-1.119
				c-0.23-0.017-0.451-0.025-0.66-0.026c-0.479-0.002-1.104,0.322-1.618,0.59c-0.597,0.311-1.105,0.575-1.704,0.587
				c-1.161,0.023-1.85-0.543-1.885-2.236c-0.126-6.281,2.384-9.916,5.563-11.532c1.199-0.61,2.492-0.926,3.774-0.981
				c1.275-0.056,2.54,0.146,3.694,0.568C301.626,182.965,303.861,185.408,303.938,188.707z"/>
			<path style="fill-rule:evenodd;clip-rule:evenodd;fill:#EECAAA;" d="M186.632,198.582c-8.079-7.37-19.265-10.339-24.236,1.313
				c-6.304,14.774,19.872,30.12,28.907,20.654C198.121,213.405,193.214,204.587,186.632,198.582z"/>
			<path style="fill-rule:evenodd;clip-rule:evenodd;fill:#EECAAA;" d="M180.394,172.495c9.019,43.798,1.013,79.035,56.1,78.048
				c20.409-0.367,35.411-8.179,42.791-16.737c12.542-14.542,7.733-35.301,3.8-54.813c-6.248-30.996-9.659-37.498-9.659-37.498
				S197.582,150.134,180.394,172.495z"/>
			<path style="fill-rule:evenodd;clip-rule:evenodd;fill:#D38A72;" d="M182.832,186.42c0.244,1.616,0.474,3.213,0.696,4.792
				c0.413-0.087,0.804-0.296,1.117-0.625c4.828-5.07,21.422-9.883,39.789-13.433c22.775-4.401,47.991-6.751,57.18-5.263
				c-0.334-1.565-0.657-3.056-0.972-4.471c-10.778-1.078-35.111,1.254-57.022,5.488C205.827,176.348,189.467,181.102,182.832,186.42
				z"/>
			<path style="fill-rule:evenodd;clip-rule:evenodd;fill:#143836;" d="M171.117,208.456c0.13,0.735-0.361,1.438-1.097,1.567
				c-0.735,0.13-1.437-0.361-1.567-1.097c-0.507-2.878-0.228-5.313,0.672-7.069c0.67-1.306,1.671-2.245,2.949-2.74
				c1.236-0.48,2.692-0.524,4.311-0.061c2.744,0.787,6.063,3.108,9.622,7.385c0.478,0.572,0.402,1.423-0.17,1.901
				c-0.272,0.227-0.608,0.328-0.936,0.311v0.002c-0.012,0-4.165-0.252-5.778,1.771c-1.52,1.904,0.192,5.412,0.196,5.423
				c0.324,0.672,0.041,1.48-0.632,1.803c-0.672,0.323-1.48,0.04-1.803-0.633c-0.008-0.015-2.466-5.037,0.123-8.28
				c1.288-1.615,3.388-2.304,5.118-2.593c-2.452-2.535-4.658-3.963-6.491-4.488c-1.025-0.295-1.893-0.287-2.58-0.021
				c-0.643,0.25-1.161,0.748-1.522,1.453C170.892,204.334,170.716,206.177,171.117,208.456z"/>
			<path style="fill-rule:evenodd;clip-rule:evenodd;fill:#D38A72;" d="M171.531,203.09c-0.639,1.244-0.815,3.087-0.414,5.366
				c0.039,0.219,0.021,0.436-0.04,0.636c0.863,1.719,2.438,3.369,4.882,4.928c-0.278-1.651-0.229-3.682,1.047-5.28
				c1.288-1.615,3.388-2.304,5.118-2.593c-2.452-2.535-4.658-3.963-6.491-4.488c-1.025-0.295-1.893-0.287-2.58-0.021
				C172.41,201.887,171.892,202.385,171.531,203.09z"/>
			<path style="fill-rule:evenodd;clip-rule:evenodd;fill:#143836;" d="M190.126,193.739c1.649-5.35,1.226-11.025,0.141-14.811
				c-2.994,1.394-5.475,2.888-7.257,4.476l-1.107,0.988c0.271,1.375,0.535,2.737,0.794,4.084c0.328,1.708,0.647,3.394,0.963,5.053
				c0.548,2.865,1.086,5.655,1.648,8.359c1.35-1.342,2.425-2.834,3.268-4.407C189.223,196.273,189.733,195.015,190.126,193.739z"/>
			<path style="fill-rule:evenodd;clip-rule:evenodd;fill:#143836;" d="M276.22,177.561c-3.626-3.99-5.349-9.088-5.712-12.808
				c3.455,0.018,6.445,0.327,8.787,0.997l1.456,0.417c0.252,1.303,0.507,2.59,0.761,3.863c0.322,1.613,0.646,3.204,0.959,4.772
				c0.544,2.706,1.066,5.345,1.534,7.917c-1.826-0.629-3.44-1.496-4.857-2.526C278.058,179.4,277.085,178.513,276.22,177.561z"/>
			<g>
				<path style="fill-rule:evenodd;clip-rule:evenodd;fill:#D38A72;" d="M238.999,211.316c-1.446-2.324-13.37-13.106-23.049-0.094
					c-9.68,13.014-20.627,10.742-17.385,7.576c1.263-1.233,4.944-1.933,7.243-0.905c0.63,0.28-0.298-0.838-1.698-1.601
					c-1.24-0.676-2.327-0.751-3.672-0.556c-1.719,0.249-1.806-7.116-4.014-4.368c-3.46,4.306-4.769,11.097-0.435,15.254
					c4.968,4.764,17.024,5.429,26.115,4.044c12.367-1.884,19.409-12.478,21.136-13.431c6.399,3.161,18.839,7.513,26.028,5.48
					c5.378-1.521,11.957-6.454,14.187-11.908c2.841-6.949,0.436-12.966-6.608-11.669c3.176,1.916,1.201-0.514-0.718,3.803
					c-1.443,3.249-5.588,5.799-12.08,0.079c-10.507-9.255-17.934,4.649-18.627,7.296c-0.12,0.192-0.242,0.42-0.363,0.673
					C243.19,210.824,239.66,211.824,238.999,211.316z"/>
				<path style="fill-rule:evenodd;clip-rule:evenodd;fill:#143836;" d="M229.943,215.106c1.577,7.433,2.355,12.818,5.466,16.727
					c7.395,9.289,17.313,5.998,17.736-6.115c0.284-8.146-0.921-17.091-0.921-17.091
					C239.879,215.231,243.541,212.814,229.943,215.106z"/>
				<path style="fill-rule:evenodd;clip-rule:evenodd;fill:#BA291C;" d="M251.369,227.334c-1.1-3.108-12.04-4.619-15.102,2.452
					C239.983,236.374,249.734,235.986,251.369,227.334z"/>
				<path style="fill-rule:evenodd;clip-rule:evenodd;fill:#143836;" d="M219.328,185c-7.878-1.669-8.584-1.077-16.027,1.868
					c4.051-7.278,8.941-7.594,16.98-7.201c1.472,0.263,2.452,1.671,2.189,3.143C222.206,184.282,220.799,185.263,219.328,185z"/>
				<path style="fill-rule:evenodd;clip-rule:evenodd;fill:#143836;" d="M248.753,180.577c6.779-4.345,7.649-4.041,15.652-3.916
					c-6.362-5.378-11.048-3.943-18.429-0.735c-1.284,0.767-1.705,2.43-0.937,3.714C245.806,180.924,247.468,181.344,248.753,180.577
					z"/>
				<path style="fill-rule:evenodd;clip-rule:evenodd;fill:#143836;" d="M238.118,208.621c-0.622-0.412-0.792-1.251-0.38-1.874
					c0.413-0.621,1.252-0.792,1.874-0.38c1.35,0.893,2.947,0.795,4.337,0.127c0.784-0.375,1.5-0.926,2.08-1.583
					c0.571-0.647,1.003-1.39,1.226-2.161c0.351-1.209,0.166-2.519-0.861-3.634c-1.242-1.35-2.54-1.888-3.757-1.911
					c-1.578-0.031-3.091,0.771-4.212,1.795c-0.549,0.504-1.403,0.466-1.907-0.085c-0.504-0.549-0.465-1.403,0.085-1.907
					c1.566-1.433,3.741-2.553,6.095-2.507c1.9,0.037,3.875,0.819,5.68,2.779c1.756,1.907,2.07,4.148,1.47,6.221
					c-0.337,1.161-0.969,2.258-1.794,3.193c-0.818,0.927-1.83,1.703-2.939,2.235C242.925,209.982,240.358,210.105,238.118,208.621z"
					/>
				<path style="fill-rule:evenodd;clip-rule:evenodd;fill:#D38A72;" d="M237.437,239.241c4.16,2.268,12.09,0.521,14.175-1.191
					c2.084-1.712-0.763,9.196-5.738,9.253C240.899,247.359,237.437,239.241,237.437,239.241z"/>
				<path style="fill-rule:evenodd;clip-rule:evenodd;fill:#D38A72;" d="M233.915,203.226c4.16,2.268,12.091,0.522,14.175-1.19
					c2.083-1.712-1.398,6.444-6.372,6.501C236.744,208.593,233.915,203.226,233.915,203.226z"/>
				<path style="fill-rule:evenodd;clip-rule:evenodd;fill:#143836;" d="M238.615,208.03c-1.446-2.325-13.37-13.107-23.05-0.094
					c-9.68,13.013-17.722,2.546-14.479-0.62c1.262-1.233,4.944-1.933,7.242-0.906c0.629,0.281-0.298-0.837-1.698-1.601
					c-1.24-0.676-2.328-0.75-3.672-0.555c-1.719,0.249-4.71,1.079-6.919,3.827c-3.461,4.306-4.769,11.098-0.435,15.254
					c4.968,4.765,17.023,5.43,26.115,4.045c12.367-1.884,19.408-12.478,21.135-13.431c6.399,3.161,18.84,7.512,26.028,5.479
					c5.378-1.52,11.956-6.453,14.186-11.908c2.841-6.948-4.053-16.173-11.097-14.875c3.177,1.915,5.689,2.692,3.771,7.01
					c-1.444,3.248-5.588,5.799-12.08,0.078c-10.507-9.255-17.935,4.649-18.628,7.297c-0.121,0.191-0.242,0.42-0.362,0.672
					C242.806,207.538,239.276,208.538,238.615,208.03z"/>
				<path style="fill-rule:evenodd;clip-rule:evenodd;fill:#143836;" d="M222.975,190.629c-0.202-0.718,0.217-1.464,0.936-1.666
					c0.719-0.201,1.466,0.218,1.667,0.936l0.03,0.116c0.393,1.498,0.055,3.028-0.821,4.304c-0.838,1.224-2.18,2.216-3.831,2.695
					l-0.012,0.003l0.001,0.003l-0.073,0.021l-0.072,0.018c-1.66,0.444-3.33,0.296-4.695-0.309c-1.468-0.65-2.599-1.821-3.046-3.358
					c-0.207-0.716,0.205-1.464,0.92-1.672c0.715-0.207,1.465,0.205,1.672,0.921c0.21,0.727,0.786,1.298,1.543,1.634
					c0.829,0.367,1.86,0.454,2.899,0.179l0.121-0.035v0.002c1.023-0.3,1.841-0.896,2.339-1.624c0.441-0.644,0.622-1.386,0.444-2.084
					L222.975,190.629z"/>
				<path style="fill-rule:evenodd;clip-rule:evenodd;fill:#143836;" d="M257.937,185.006c-0.201-0.719,0.218-1.465,0.936-1.667
					c0.72-0.201,1.466,0.218,1.667,0.937l0.031,0.116c0.393,1.498,0.054,3.027-0.82,4.304c-0.84,1.224-2.182,2.216-3.833,2.695
					l-0.012,0.003l0.002,0.003l-0.073,0.021l-0.072,0.018c-1.659,0.445-3.33,0.295-4.694-0.31c-1.468-0.649-2.6-1.82-3.046-3.357
					c-0.207-0.715,0.205-1.464,0.92-1.671c0.716-0.208,1.465,0.204,1.672,0.92c0.211,0.727,0.786,1.298,1.544,1.634
					c0.828,0.367,1.859,0.455,2.898,0.178l0.121-0.035l0.001,0.002c1.022-0.299,1.841-0.896,2.339-1.623
					c0.44-0.644,0.621-1.386,0.443-2.084L257.937,185.006z"/>
				<path style="fill-rule:evenodd;clip-rule:evenodd;fill:#FFFFFF;" d="M242.505,198.033c1.108-0.023,2.02,0.633,2.037,1.464
					c0.017,0.831-0.867,1.522-1.975,1.545c-1.107,0.023-2.02-0.633-2.037-1.463C240.513,198.748,241.396,198.056,242.505,198.033z"
					/>
			</g>
		</g>
		<g>
			<path style="fill-rule:evenodd;clip-rule:evenodd;fill:#195F63;" d="M251.946,286c-64.048,0.536-116.699,7.363-116.57,22.925
				c0.011,1.281,1.479,16.405,2.169,17.634c7.711,13.712,56.364,23.93,115.14,23.439c53.894-0.451,99.127-9.762,112.036-21.975
				c2.433-2.301,2.023-18.87,2.211-21.33C367.836,294.836,315.993,285.465,251.946,286z"/>
			<path style="fill-rule:evenodd;clip-rule:evenodd;fill:#195F63;" d="M250.915,274.393
				c-64.048,0.475-115.844,14.463-115.69,31.243c0.156,16.781,52.204,29.999,116.252,29.524
				c64.049-0.475,115.846-14.463,115.689-31.243C367.013,287.137,314.964,273.918,250.915,274.393z"/>
			<path style="fill-rule:evenodd;clip-rule:evenodd;fill:#143836;" d="M251.102,286.418c-52.9,0.517-95.72,10.146-95.644,21.504
				c0.077,11.359,43.023,20.149,95.923,19.633c52.899-0.517,95.721-10.145,95.645-21.504
				C346.949,294.691,304.002,285.901,251.102,286.418z"/>
			<path style="fill-rule:evenodd;clip-rule:evenodd;fill:#D38A72;" d="M155.732,311.973c18.819,8.228,55.43,13.614,97.467,13.264
				c46.065-0.386,85.498-7.551,102.1-17.414c8.176-4.857,7.063-7.744-0.531-12.515c-6.293-3.953-15.36-7.195-26.233-9.739
				l-62.283,14.315l-12.323,1.466l26.304-20.027c3.142-2.394,3.025-1.915-0.921-2.125c-45.319-2.409-96.812,2.455-122.146,14.384
				C144.002,299.777,140.249,305.203,155.732,311.973z"/>
			<path style="fill-rule:evenodd;clip-rule:evenodd;fill:#143836;" d="M343.818,290.076c-4.523-1.69-9.661-3.192-15.284-4.508
				l-50.268,10.633l-20.142,8.829L343.818,290.076z"/>
			<path style="fill-rule:evenodd;clip-rule:evenodd;fill:#143836;" d="M136.463,310.772c9.6,14.746,69.87,20.422,81.746,21.237
				c37.124,2.55,105.455,1.083,137.245-14.311c5.374-2.602,9.738-5.146,11.458-10.605c-0.016,0.404-0.025,0.968-0.035,1.652
				c-1.824,6.352-10.649,10.375-16.191,12.723c-43.405,18.383-133.003,18.545-179.901,8.875c-8.811-1.816-25.514-5.267-34.598-12.76
				c-0.307-2.78-0.572-5.54-0.711-7.193C135.944,310.42,136.306,310.532,136.463,310.772z"/>
			<path style="fill-rule:evenodd;clip-rule:evenodd;fill:#EECAAA;" d="M156.186,309.003c10.331,4.498,28.289,8.196,33.873,9.145
				c41.458,7.041,118.501,7.586,157.578-7.722c3.153-1.235,15.464-5.551,11.964-10.608c-0.89-1.286-3.639-3.478-4.833-4.51
				c13.789,6.9,3.714,12.631-6.335,17.041c-42.352,18.586-136.163,19.132-181.118,6.769c-6.855-1.886-18.685-4.94-23.244-11.61
				c-0.19-0.276-2.391-3.359,2.379-6.737c0.216-0.153,0.575,1.431,2.058,3.004C150.684,306.078,153.309,307.751,156.186,309.003z"/>
			<g>
				<path style="fill-rule:evenodd;clip-rule:evenodd;fill:#143836;" d="M308.564,346.045c0.673-6.255,1.839-15.643,2.967-16.163
					c0.15,0.345,0.113,0.173,0.14,0.505l0.009-0.036c0.552,3.279,0.456,9.811,0.328,15.184
					C310.873,345.709,309.725,345.879,308.564,346.045z"/>
				<path style="fill-rule:evenodd;clip-rule:evenodd;fill:#143836;" d="M294.139,347.795c0.211-6.395,0.233-10.243,1.501-16.948
					c1.514,6.537,1.714,10.364,2.17,16.559C296.597,347.541,295.372,347.669,294.139,347.795z"/>
				<path style="fill-rule:evenodd;clip-rule:evenodd;fill:#143836;" d="M278.717,349.065c0.052-5.714-0.008-9.573,1.054-16.063
					c1.463,6.16,1.945,10.221,2.451,15.825C281.061,348.911,279.892,348.99,278.717,349.065z"/>
				<path style="fill-rule:evenodd;clip-rule:evenodd;fill:#143836;" d="M259.646,349.889c0.129-9.186-0.102-4.69,1.073-16.165l0,0
					c2.179,11.326,1.543,6.796,2.49,16.07C262.027,349.829,260.839,349.861,259.646,349.889z"/>
				<path style="fill-rule:evenodd;clip-rule:evenodd;fill:#143836;" d="M240.952,349.951c0.057-5.921,0.117-10.397,1.108-17.336
					c1.386,6.802,1.843,11.396,2.293,17.38C243.215,349.985,242.082,349.97,240.952,349.951z"/>
				<path style="fill-rule:evenodd;clip-rule:evenodd;fill:#143836;" d="M221.64,349.235c0.327-8.591,0.05-4.519,1.498-16.562l0,0
					c1.788,12.114,1.38,7.88,1.958,16.751C223.937,349.365,222.785,349.302,221.64,349.235z"/>
				<path style="fill-rule:evenodd;clip-rule:evenodd;fill:#143836;" d="M204.091,347.819c0.933-10.273,0.274-5.21,2.38-17.009l0,0
					c1.331,12.071,0.999,6.858,1.261,17.368C206.509,348.064,205.293,347.944,204.091,347.819z"/>
				<path style="fill-rule:evenodd;clip-rule:evenodd;fill:#143836;" d="M186.372,345.499c1.222-9.133,0.399-4.643,2.759-14.399
					h0.001c1.113,10.301,0.86,5.65,0.936,14.97C188.819,345.885,187.588,345.695,186.372,345.499z"/>
			</g>
			<path style="fill-rule:evenodd;clip-rule:evenodd;fill:#E3B595;" d="M158.202,296.396c14.033-9.441,36.105-12.122,52.673-13.807
				c10.932-1.112,33.052-2.947,47.159-1.396c5.366,0.59,6.158,2.778,1.585,2.761c-23.099-0.085-78.24,4.522-96.778,17.81
				c-1.482,1.28-5.298,1.15-6.579-0.332C154.979,299.948,156.718,297.676,158.202,296.396z"/>
			<g>
				<g>
					<path style="fill-rule:evenodd;clip-rule:evenodd;fill:#BA291C;" d="M240.839,284.264c6.413-0.143,11.889,2.464,12.23,5.822
						c0.343,3.358-4.579,6.196-10.991,6.339c-6.413,0.143-11.888-2.465-12.229-5.822
						C229.506,287.244,234.427,284.405,240.839,284.264z"/>
					<g>
						<g>
							<path style="fill-rule:evenodd;clip-rule:evenodd;fill:#ECBF56;" d="M241.075,286.554c1.149-0.026,2.13,0.441,2.191,1.043
								c0.061,0.602-0.821,1.11-1.969,1.136c-1.149,0.025-2.131-0.441-2.191-1.044C239.045,287.087,239.927,286.579,241.075,286.554
								z"/>
							<path style="fill-rule:evenodd;clip-rule:evenodd;fill:#ECBF56;" d="M241.46,290.976c1.149-0.025,2.129,0.441,2.191,1.043
								c0.062,0.602-0.82,1.11-1.97,1.136c-1.148,0.025-2.128-0.442-2.191-1.043C239.43,291.51,240.311,291.001,241.46,290.976z"/>
						</g>
						<g>
							<path style="fill-rule:evenodd;clip-rule:evenodd;fill:#ECBF56;" d="M248.669,289.554c0.062,0.603-0.82,1.11-1.969,1.136
								c-1.149,0.026-2.13-0.442-2.19-1.043c-0.062-0.602,0.82-1.11,1.968-1.136C247.627,288.485,248.609,288.952,248.669,289.554z"
								/>
							<path style="fill-rule:evenodd;clip-rule:evenodd;fill:#ECBF56;" d="M238.204,289.786c0.061,0.603-0.82,1.11-1.971,1.136
								c-1.148,0.026-2.128-0.441-2.191-1.043c-0.06-0.602,0.821-1.109,1.971-1.135
								C237.161,288.718,238.142,289.185,238.204,289.786z"/>
						</g>
					</g>
				</g>
				<path style="fill-rule:evenodd;clip-rule:evenodd;fill:#143836;" d="M253.068,290.086c0.821,2.522-0.495,4.706-2.752,5.959
					c-5.766,3.198-20.867,2.357-20.469-5.442C233.784,297.32,249.998,296.633,253.068,290.086z"/>
			</g>
			<g>
				<g>
					<path style="fill-rule:evenodd;clip-rule:evenodd;fill:#BA291C;" d="M183.885,291.577c6.413-0.142,11.888,2.464,12.23,5.822
						c0.342,3.358-4.579,6.196-10.992,6.339c-6.413,0.143-11.888-2.465-12.23-5.823
						C172.552,294.558,177.473,291.719,183.885,291.577z"/>
					<g>
						<g>
							<path style="fill-rule:evenodd;clip-rule:evenodd;fill:#ECBF56;" d="M184.121,293.866c1.149-0.025,2.129,0.441,2.191,1.043
								c0.062,0.602-0.82,1.11-1.969,1.137c-1.15,0.025-2.13-0.442-2.191-1.044C182.089,294.4,182.973,293.893,184.121,293.866z"/>
							<path style="fill-rule:evenodd;clip-rule:evenodd;fill:#ECBF56;" d="M184.506,298.289c1.149-0.025,2.129,0.441,2.19,1.043
								c0.061,0.602-0.82,1.11-1.969,1.136c-1.148,0.024-2.13-0.442-2.191-1.043C182.476,298.822,183.356,298.315,184.506,298.289z"
								/>
						</g>
						<g>
							<path style="fill-rule:evenodd;clip-rule:evenodd;fill:#ECBF56;" d="M191.715,296.867c0.062,0.602-0.821,1.11-1.969,1.136
								c-1.15,0.025-2.13-0.442-2.191-1.043c-0.063-0.602,0.821-1.11,1.969-1.136C190.673,295.799,191.653,296.266,191.715,296.867z
								"/>
							<path style="fill-rule:evenodd;clip-rule:evenodd;fill:#ECBF56;" d="M181.248,297.1c0.062,0.602-0.821,1.11-1.97,1.136
								c-1.148,0.025-2.129-0.441-2.191-1.043c-0.061-0.602,0.82-1.109,1.97-1.136C180.206,296.031,181.187,296.498,181.248,297.1z"
								/>
						</g>
					</g>
				</g>
				<path style="fill-rule:evenodd;clip-rule:evenodd;fill:#143836;" d="M196.114,297.399c0.82,2.521-0.495,4.706-2.753,5.959
					c-5.766,3.197-20.866,2.356-20.469-5.443C176.83,304.634,193.042,303.946,196.114,297.399z"/>
			</g>
			<g>
				<g>
					<path style="fill-rule:evenodd;clip-rule:evenodd;fill:#BA291C;" d="M235.593,304.24c6.412-0.143,11.887,2.465,12.229,5.822
						c0.342,3.358-4.58,6.196-10.993,6.339c-6.412,0.143-11.887-2.464-12.229-5.822C224.259,307.221,229.181,304.383,235.593,304.24
						z"/>
					<g>
						<g>
							<path style="fill-rule:evenodd;clip-rule:evenodd;fill:#ECBF56;" d="M235.829,306.53c1.149-0.025,2.129,0.441,2.191,1.043
								c0.062,0.602-0.82,1.11-1.97,1.136c-1.148,0.025-2.129-0.441-2.191-1.043C233.798,307.065,234.68,306.556,235.829,306.53z"/>
							<path style="fill-rule:evenodd;clip-rule:evenodd;fill:#ECBF56;" d="M236.214,310.952c1.148-0.025,2.129,0.441,2.19,1.043
								c0.061,0.603-0.82,1.11-1.969,1.136c-1.15,0.026-2.13-0.441-2.191-1.043C234.183,311.486,235.064,310.978,236.214,310.952z"
								/>
						</g>
						<g>
							<path style="fill-rule:evenodd;clip-rule:evenodd;fill:#ECBF56;" d="M243.423,309.531c0.062,0.602-0.821,1.11-1.97,1.136
								c-1.148,0.025-2.129-0.441-2.191-1.043c-0.06-0.602,0.821-1.11,1.969-1.136C242.381,308.462,243.361,308.93,243.423,309.531z
								"/>
							<path style="fill-rule:evenodd;clip-rule:evenodd;fill:#ECBF56;" d="M232.956,309.763c0.061,0.603-0.821,1.11-1.97,1.137
								c-1.149,0.025-2.129-0.441-2.191-1.044c-0.061-0.601,0.82-1.109,1.97-1.135C231.914,308.695,232.895,309.162,232.956,309.763
								z"/>
						</g>
					</g>
				</g>
				<path style="fill-rule:evenodd;clip-rule:evenodd;fill:#143836;" d="M247.822,310.063c0.819,2.522-0.496,4.706-2.753,5.959
					c-5.766,3.198-20.866,2.357-20.468-5.442C228.538,317.298,244.751,316.609,247.822,310.063z"/>
			</g>
			<g>
				<g>
					<path style="fill-rule:evenodd;clip-rule:evenodd;fill:#BA291C;" d="M311.337,297.625c6.413-0.142,11.888,2.465,12.229,5.822
						c0.341,3.359-4.58,6.197-10.992,6.339c-6.413,0.143-11.888-2.464-12.229-5.822
						C300.003,300.605,304.924,297.768,311.337,297.625z"/>
					<g>
						<g>
							<path style="fill-rule:evenodd;clip-rule:evenodd;fill:#ECBF56;" d="M311.572,299.915c1.148-0.025,2.129,0.441,2.191,1.043
								c0.061,0.602-0.821,1.11-1.97,1.136c-1.149,0.025-2.13-0.441-2.191-1.043C309.541,300.449,310.424,299.94,311.572,299.915z"
								/>
							<path style="fill-rule:evenodd;clip-rule:evenodd;fill:#ECBF56;" d="M311.956,304.338c1.149-0.026,2.131,0.441,2.191,1.042
								c0.062,0.602-0.82,1.11-1.969,1.136c-1.149,0.025-2.131-0.441-2.191-1.043C309.927,304.871,310.809,304.363,311.956,304.338z
								"/>
						</g>
						<g>
							<path style="fill-rule:evenodd;clip-rule:evenodd;fill:#ECBF56;" d="M319.167,302.916c0.06,0.602-0.821,1.109-1.97,1.136
								c-1.149,0.025-2.13-0.441-2.191-1.044c-0.062-0.601,0.821-1.109,1.97-1.135C318.124,301.848,319.104,302.315,319.167,302.916
								z"/>
							<path style="fill-rule:evenodd;clip-rule:evenodd;fill:#ECBF56;" d="M308.699,303.148c0.063,0.602-0.82,1.11-1.969,1.136
								c-1.148,0.025-2.13-0.441-2.19-1.043c-0.062-0.602,0.82-1.11,1.969-1.136S308.639,302.547,308.699,303.148z"/>
						</g>
					</g>
				</g>
				<path style="fill-rule:evenodd;clip-rule:evenodd;fill:#39210C;" d="M323.566,303.447c0.818,2.522-0.495,4.707-2.754,5.959
					c-5.765,3.198-20.865,2.357-20.468-5.442C304.28,310.683,320.494,309.994,323.566,303.447z"/>
			</g>
			<path style="fill-rule:evenodd;clip-rule:evenodd;fill:#195F63;" d="M208.811,302.771c-0.456,0.59-1.304,0.698-1.894,0.243
				c-0.59-0.456-0.699-1.304-0.244-1.895l0.066-0.081c0.799-0.99,1.973-1.514,3.239-1.558c1.198-0.043,2.483,0.35,3.58,1.186
				l0.104,0.083c1.078,0.859,1.778,2.015,2.041,3.191c0.285,1.281,0.064,2.595-0.732,3.638c-0.454,0.594-1.301,0.707-1.894,0.254
				c-0.592-0.452-0.707-1.301-0.253-1.893c0.288-0.379,0.361-0.893,0.245-1.415c-0.133-0.598-0.504-1.196-1.081-1.658l-0.068-0.051
				c-0.586-0.447-1.248-0.658-1.846-0.638c-0.497,0.018-0.944,0.201-1.226,0.546L208.811,302.771z"/>
			<path style="fill-rule:evenodd;clip-rule:evenodd;fill:#195F63;" d="M279.143,311.328c0.1-0.739,0.778-1.258,1.518-1.158
				c0.738,0.099,1.258,0.779,1.158,1.519l-0.006,0.042h0.001c-0.182,1.286-0.946,2.35-2.041,3.032
				c-1.013,0.632-2.32,0.933-3.689,0.755l-0.011-0.002v0.002l-0.068-0.01v0.002c-1.386-0.197-2.59-0.853-3.417-1.753
				c-0.887-0.967-1.351-2.216-1.181-3.517c0.093-0.739,0.768-1.264,1.506-1.17c0.74,0.094,1.264,0.769,1.17,1.508
				c-0.061,0.473,0.133,0.954,0.495,1.349c0.423,0.461,1.059,0.799,1.808,0.906v0.001l0.048,0.007l-0.001,0.001
				c0.728,0.092,1.402-0.058,1.913-0.375c0.431-0.27,0.728-0.662,0.792-1.116h0.002L279.143,311.328z"/>
			<path style="fill-rule:evenodd;clip-rule:evenodd;fill:#195F63;" d="M333.565,298.463c-0.295,0.684-1.089,0.999-1.771,0.703
				c-0.685-0.295-0.999-1.089-0.704-1.772l0.018-0.039l-0.005-0.002c0.523-1.187,1.547-2.002,2.787-2.364
				c1.148-0.337,2.49-0.273,3.759,0.267l0.068,0.032l0.001-0.003c1.28,0.563,2.265,1.522,2.817,2.615
				c0.593,1.17,0.701,2.498,0.186,3.706c-0.292,0.686-1.085,1.006-1.772,0.715c-0.686-0.293-1.006-1.086-0.713-1.773
				c0.186-0.436,0.129-0.952-0.113-1.431c-0.281-0.556-0.802-1.052-1.495-1.356l0.001-0.002l-0.038-0.016
				c-0.681-0.289-1.374-0.331-1.95-0.163c-0.484,0.143-0.876,0.441-1.062,0.863l-0.004-0.001L333.565,298.463z"/>
			<path style="fill-rule:evenodd;clip-rule:evenodd;fill:#EECAAA;" d="M255.125,305.731c-1.164,0.271-3.627-0.927-3.866-4.026
				c-0.272-1.163,2.222,0.146,3.385-0.125l73.624-16.985c4.376-1.022,6.604,2.636,5.666,2.854L255.125,305.731z"/>
			<path style="fill-rule:evenodd;clip-rule:evenodd;fill:#EECAAA;" d="M257.942,304.27c-2.023,1.257-4.681,0.636-5.938-1.386
				c-1.257-2.021-0.636-4.681,1.386-5.938l28.068-17.506c2.022-1.257,4.681-0.637,5.938,1.386c1.256,2.021,0.637,4.68-1.385,5.938
				L257.942,304.27z"/>
			<path style="fill-rule:evenodd;clip-rule:evenodd;fill:#143836;" d="M201.866,291.887c-0.829,0.044-1.467,0.753-1.423,1.582
				c0.043,0.83,0.751,1.468,1.582,1.424c0.829-0.044,1.467-0.752,1.424-1.582C203.405,292.48,202.697,291.844,201.866,291.887z"/>
			<path style="fill-rule:evenodd;clip-rule:evenodd;fill:#603E29;" d="M223.938,291.3c-0.83,0.044-1.467,0.753-1.424,1.582
				c0.044,0.83,0.753,1.468,1.582,1.424c0.831-0.043,1.468-0.751,1.424-1.582C225.477,291.895,224.768,291.257,223.938,291.3z"/>
			<path style="fill-rule:evenodd;clip-rule:evenodd;fill:#143836;" d="M223.94,291.342c-0.402,0.021-0.76,0.204-1.011,0.482
				c-0.251,0.278-0.395,0.652-0.374,1.056c0.021,0.403,0.205,0.761,0.483,1.011c0.277,0.25,0.652,0.396,1.055,0.374h0.003
				c0.402-0.021,0.758-0.204,1.008-0.482c0.251-0.278,0.395-0.652,0.374-1.056v-0.002c-0.021-0.403-0.205-0.759-0.482-1.01
				C224.718,291.465,224.345,291.32,223.94,291.342L223.94,291.342z M222.868,291.769c0.264-0.294,0.643-0.487,1.068-0.51
				c0.426-0.022,0.821,0.131,1.116,0.396c0.294,0.265,0.487,0.642,0.509,1.067v0.002c0.022,0.427-0.13,0.82-0.394,1.114
				c-0.265,0.294-0.643,0.487-1.068,0.509l-0.002,0.001c-0.426,0.021-0.821-0.132-1.114-0.396c-0.294-0.265-0.487-0.642-0.51-1.068
				C222.451,292.458,222.604,292.063,222.868,291.769z"/>
			<path style="fill-rule:evenodd;clip-rule:evenodd;fill:#143836;" d="M214.823,309.003c-0.83,0.043-1.468,0.751-1.424,1.581
				c0.044,0.83,0.752,1.468,1.582,1.424c0.831-0.044,1.468-0.752,1.424-1.581C216.361,309.597,215.653,308.959,214.823,309.003z"/>
			<path style="fill-rule:evenodd;clip-rule:evenodd;fill:#143836;" d="M185.854,307.984c-0.83,0.044-1.468,0.752-1.424,1.582
				c0.043,0.829,0.752,1.467,1.582,1.424c0.83-0.044,1.467-0.752,1.424-1.582C187.393,308.578,186.684,307.94,185.854,307.984z"/>
			<path style="fill-rule:evenodd;clip-rule:evenodd;fill:#143836;" d="M259.62,311.92c-0.831,0.044-1.468,0.753-1.425,1.582
				c0.045,0.83,0.752,1.468,1.582,1.424c0.831-0.043,1.468-0.752,1.423-1.582C261.158,312.514,260.449,311.877,259.62,311.92z"/>
			<path style="fill-rule:evenodd;clip-rule:evenodd;fill:#143836;" d="M295.15,310.905c-0.829,0.044-1.468,0.753-1.423,1.582
				c0.043,0.83,0.751,1.468,1.581,1.424c0.83-0.044,1.468-0.752,1.425-1.582C296.688,311.499,295.98,310.862,295.15,310.905z"/>
			<path style="fill-rule:evenodd;clip-rule:evenodd;fill:#143836;" d="M325.522,295.948c-0.83,0.043-1.467,0.751-1.424,1.582
				c0.043,0.829,0.752,1.467,1.581,1.424c0.83-0.044,1.467-0.753,1.424-1.583C327.06,296.542,326.352,295.904,325.522,295.948z"/>
			<path style="fill-rule:evenodd;clip-rule:evenodd;fill:#143836;" d="M347.924,297.782c-0.831,0.044-1.468,0.752-1.425,1.582
				c0.045,0.83,0.752,1.468,1.582,1.424c0.83-0.044,1.467-0.752,1.424-1.582C349.462,298.376,348.753,297.738,347.924,297.782z"/>
		</g>
		<g>
			<path style="fill-rule:evenodd;clip-rule:evenodd;fill:#BA291C;" d="M160.147,330.882c10.37,7.583,15.199,19.451,10.785,26.51
				c-4.415,7.059-16.401,6.633-26.771-0.949c-10.371-7.583-15.199-19.451-10.785-26.51
				C137.79,322.875,149.776,323.3,160.147,330.882z"/>
			<path style="fill-rule:evenodd;clip-rule:evenodd;fill:#143836;" d="M160.147,330.882c10.37,7.583,15.199,19.451,10.785,26.51
				c-0.047,0.073-0.093,0.145-0.141,0.216c-5.712,2.707-14.577,1.092-22.499-4.7c-10.371-7.583-15.199-19.452-10.785-26.511
				c0.047-0.072,0.094-0.144,0.142-0.216C143.36,323.475,152.225,325.09,160.147,330.882z"/>
			<path style="fill-rule:evenodd;clip-rule:evenodd;fill:#BA291C;" d="M151.766,306.914c-4.67,1.053-7.319,5.243-8.647,8.23
				c-0.318,0.714-4.497-5.292-8.304-6.561c-2.816-0.939-8.14-1.349-9.149,1.665c-0.29,0.865,1.514,2.934,2.296,4.52
				c1.446,2.932,2.672,6.01,3.782,9.46c3.889,12.104,14.808,25.135,28.11,28.034c17.396,4.829,21.867-7.249,21.533-18.698
				C180.988,319.888,162.585,304.476,151.766,306.914z"/>
			<path style="fill-rule:evenodd;clip-rule:evenodd;fill:#143836;" d="M141.367,314.291c0.344-0.66,1.159-0.916,1.82-0.571
				c0.661,0.345,0.916,1.159,0.571,1.82c-0.986,1.886-1.694,3.841-2.154,5.843c-0.484,2.105-0.692,4.257-0.658,6.429
				c0.009,0.745-0.588,1.357-1.333,1.365c-0.745,0.009-1.356-0.589-1.365-1.334c-0.037-2.39,0.19-4.753,0.72-7.064
				C139.477,318.567,140.265,316.397,141.367,314.291z"/>
			<path style="fill-rule:evenodd;clip-rule:evenodd;fill:#143836;" d="M173.412,344.275c5.205-14.706-0.826-24.35-12.585-32.627
				l-3.224-2.259c7.021,2.339,12.247,5.644,16.498,11.864c5.568,8.148,5.597,15.488,2.829,24.571
				c-0.428,0.972-1.562,1.412-2.534,0.983C173.425,346.38,172.985,345.246,173.412,344.275z"/>
		</g>
		<g>
			<path style="fill-rule:evenodd;clip-rule:evenodd;fill:#BDAAAA;" d="M182.579,105.099c-42.851-18.259-73.916,65.492,13.808,55.24
				c13.146-1.537,72.905-11.547,72.905-11.547c17.587-2.435,29.28-11.638,34.251-21.858c8.123-16.7-5.051-34.772-21.151-38.667
				c-15.333-3.708-29.584,7.048-30.359,11.04c0,0-8.824-19.232-33.772-17.066c-24.948,2.165-29.763,25.467-29.763,25.467
				L182.579,105.099z"/>
			<path style="fill-rule:evenodd;clip-rule:evenodd;fill:#E0D1D1;" d="M181.902,185.051c14.269-11.831,62.804-18.179,80.906-18.169
				c18.102,0.009,18.102,0.009,18.102,0.009l-1.103-25.909c0-0.012-5.444-1.275-9.263-2.71c-3.198-1.202-4.803-2.611-5.468-2.672
				c-7.311-0.656-15.018-0.419-24.706,0.567c-4.583,0.468-19.25,2.836-24.016,3.868c-7.8,1.689-15.752,3.773-23.23,6.097
				c-1.551,0.481-2.435,4.622-11.33,8.788c-2.474,1.159-9.138,1.911-9.438,2.351c-1.134,1.666-0.551,1.87,0.189,3.773
				L181.902,185.051z"/>
			<path style="fill-rule:evenodd;clip-rule:evenodd;fill:#143836;" d="M160.263,154.754c10.494,0.198,19.412-2.271,25.909-7.641
				c4.398-3.636,5.118-5.992,6.696-11.034l0.615,2.348C194.733,153.292,172.93,159.136,160.263,154.754z"/>
			<path style="fill-rule:evenodd;clip-rule:evenodd;fill:#143836;" d="M257.094,122.418c4.926,6.602,9.968,10.955,17.974,13.586
				c5.422,1.783,7.799,1.135,12.905-0.221l-1.657,1.773c-6.078,4.587-16.501,1.146-21.682-3.02
				C259.296,130.247,258.499,128.434,257.094,122.418z"/>
			<path style="fill-rule:evenodd;clip-rule:evenodd;fill:#143836;" d="M193.78,128.372c12.221,7.558,21.914,9.497,36.27,6.665
				c10.485-2.067,15.6-5.857,20.8-14.86c-0.726,3.78-0.374,3.978-2.56,7.209c-8.204,12.13-27.289,14.328-40.273,10.32
				C201.287,135.628,198.191,133.656,193.78,128.372z"/>
			<path style="fill-rule:evenodd;clip-rule:evenodd;fill:#143836;" d="M195.266,152.545c-0.289-0.69,0.037-1.484,0.727-1.772
				c0.689-0.289,1.483,0.036,1.772,0.726c0.831,1.986,4.828,19.198,4.84,19.247c0.168,0.727-0.284,1.452-1.01,1.621
				c-0.726,0.168-1.452-0.284-1.62-1.01C199.964,171.309,196.03,154.371,195.266,152.545z"/>
			<path style="fill-rule:evenodd;clip-rule:evenodd;fill:#143836;" d="M226.623,145.193c-0.116-0.736,0.388-1.428,1.125-1.544
				c0.736-0.115,1.427,0.388,1.544,1.124l3.031,18.985c0.115,0.736-0.388,1.428-1.125,1.543c-0.737,0.116-1.428-0.387-1.544-1.124
				L226.623,145.193z"/>
			<path style="fill-rule:evenodd;clip-rule:evenodd;fill:#143836;" d="M255.595,141.711c-0.005-0.745,0.597-1.352,1.341-1.355
				c0.745-0.005,1.353,0.596,1.357,1.341l0.17,19.305c0.004,0.745-0.597,1.351-1.341,1.355c-0.745,0.005-1.353-0.596-1.357-1.341
				L255.595,141.711z"/>
			<path style="fill-rule:evenodd;clip-rule:evenodd;fill:#E0D1D1;" d="M256.304,109.679c2.704,1.109,16.596,16.799,31.801,16.685
				c7.3-0.056,13.061-1.889,17.078-3.781c4.184-15.368-8.083-30.757-22.792-34.315c-15.333-3.708-29.584,7.048-30.359,11.04
				c0,0-8.824-19.232-33.772-17.066c-24.948,2.165-29.763,25.467-29.763,25.467l-5.918-2.608
				c-24.391-10.394-44.964,12.266-41.984,31.826c5.237,4.797,13.241,4.661,22.223,3.082c14.209-2.499,23.03-13.342,24.403-18.916
				c1.374-5.573,4.473,5.541,31.235,6.063c0.207,0.004,0.413,0.008,0.618,0.009c4.44,0.037,8.366-0.469,11.837-1.331
				C247.984,121.595,254.072,108.765,256.304,109.679z"/>
			<path style="fill-rule:evenodd;clip-rule:evenodd;fill:#FFFFFF;" d="M183.698,187.196c-0.823,0.864-2.191,0.898-3.056,0.075
				c-0.864-0.822-0.898-2.19-0.076-3.055c5.521-5.798,22.988-11.011,42.106-14.705c23.702-4.58,50.228-6.937,59.373-5.161
				c1.173,0.225,1.943,1.358,1.719,2.531c-0.224,1.173-1.358,1.942-2.531,1.718c-8.692-1.686-34.495,0.667-57.748,5.161
				C205.122,177.31,188.529,182.123,183.698,187.196z"/>
			<path style="fill-rule:evenodd;clip-rule:evenodd;fill:#FFFFFF;" d="M192.887,110.33c1.08-8.012,2.561-12.949,8.936-18.646
				c3.691-3.298,9.58-6.404,14.625-6.56l5.577,0.812l-5.063,1.76c-10.693,4.173-16.529,10.889-16.983,22.489
				c0.041,1.958-1.515,3.579-3.474,3.619C194.547,113.844,192.927,112.288,192.887,110.33z"/>
			<path style="fill-rule:evenodd;clip-rule:evenodd;fill:#FFFFFF;" d="M259.24,96.131c6.899-4.211,11.666-6.174,20.108-4.814
				c4.887,0.787,11.01,3.401,14.311,7.221l2.885,4.841l-4.558-2.82c-9.98-5.673-18.872-5.971-28.164,0.988
				c-1.495,1.265-3.733,1.079-5-0.416C257.558,99.635,257.744,97.396,259.24,96.131z"/>
			<path style="fill-rule:evenodd;clip-rule:evenodd;fill:#FFFFFF;" d="M153.436,109.767c6.9-4.211,11.667-6.174,20.109-4.813
				c4.886,0.786,11.009,3.4,14.311,7.221l2.885,4.841l-4.557-2.821c-9.98-5.673-18.872-5.971-28.165,0.988
				c-1.495,1.266-3.733,1.079-4.999-0.416C151.754,113.271,151.941,111.032,153.436,109.767z"/>
		</g>
		<g>
			<path style="fill-rule:evenodd;clip-rule:evenodd;fill:#FFFFFF;" d="M263.727,235.873c5.651,7.739,4.881,17.199-1.542,24.651
				c-6.422,7.453,5.824,9.078,4.283,18.537c-1.542,9.46-8.651,10.129-8.651,10.129s6.423-7.739,0-15.192
				c-6.422-7.453-11.046-12.613-3.082-18.633C262.698,249.346,267.065,244.76,263.727,235.873z"/>
			<path style="fill-rule:evenodd;clip-rule:evenodd;fill:#FFFFFF;" d="M271.329,226.746c-2.293,3.058-0.191,6.115,3.631,12.23
				c3.822,6.115-6.114,10.701-6.114,10.701s1.91-5.541-0.766-10.128C265.405,234.964,265.214,231.142,271.329,226.746z"/>
			<path style="fill-rule:evenodd;clip-rule:evenodd;fill:#FFFFFF;" d="M241.504,252.163c-2.733,3.643-1.374,7.096,3.18,14.383
				c4.554,7.288-7.287,12.753-7.287,12.753s2.916-6.112-0.273-11.577C233.937,262.256,233.253,258.539,241.504,252.163z"/>
		</g>
		<g>
			<path style="fill-rule:evenodd;clip-rule:evenodd;fill:#BA291C;" d="M337.951,328.718c-11.087,6.489-17.096,17.807-13.42,25.277
				c3.674,7.47,15.642,8.265,26.729,1.774c11.087-6.49,17.096-17.807,13.421-25.277
				C361.007,323.022,349.038,322.228,337.951,328.718z"/>
			<path style="fill-rule:evenodd;clip-rule:evenodd;fill:#143836;" d="M337.951,328.718c-11.087,6.489-17.096,17.807-13.42,25.277
				c0.037,0.077,0.078,0.153,0.117,0.229c5.408,3.272,14.391,2.566,22.86-2.392c11.087-6.489,17.097-17.807,13.421-25.276
				c-0.038-0.078-0.079-0.154-0.118-0.229C355.403,323.054,346.421,323.76,337.951,328.718z"/>
			<path style="fill-rule:evenodd;clip-rule:evenodd;fill:#BA291C;" d="M348.724,305.725c4.541,1.522,6.749,5.96,7.767,9.067
				c0.244,0.741,5.012-4.809,8.928-5.686c2.896-0.649,8.235-0.516,8.934,2.587c0.2,0.89-1.806,2.765-2.744,4.262
				c-1.737,2.77-3.27,5.708-4.722,9.027c-5.1,11.646-17.285,23.501-30.811,25.034c-17.798,3.038-21.02-9.433-19.524-20.788
				C318.335,315.663,338.208,302.2,348.724,305.725z"/>
			<path style="fill-rule:evenodd;clip-rule:evenodd;fill:#143836;" d="M355.813,315.121c-0.278-0.691,0.058-1.478,0.751-1.756
				c0.692-0.277,1.479,0.059,1.756,0.752c0.884,2.21,1.447,4.45,1.728,6.703c0.293,2.353,0.279,4.728,0,7.099
				c-0.085,0.742-0.756,1.275-1.497,1.19c-0.742-0.084-1.275-0.755-1.191-1.497c0.254-2.16,0.268-4.321,0-6.464
				C357.107,319.11,356.602,317.096,355.813,315.121z"/>
			<path style="fill-rule:evenodd;clip-rule:evenodd;fill:#143836;" d="M323.394,340.693c-3.684-15.158,3.295-24.14,15.835-31.18
				l3.438-1.919c-7.224,1.614-12.758,4.37-17.619,10.127c-6.366,7.541-7.142,14.84-5.311,24.157c0.328,1.01,1.412,1.563,2.422,1.235
				C323.169,342.787,323.722,341.703,323.394,340.693z"/>
		</g>
	</g>
	<g>
		<path style="fill-rule:evenodd;clip-rule:evenodd;fill:#BA291C;" d="M313.112,399.197l7.212,9.367l-7.212,9.366
			c-36.599,0-87.352,0-123.952,0l-7.85-9.366l7.85-9.367C225.76,399.197,276.514,399.197,313.112,399.197z"/>
		<g>
			<path style="fill-rule:evenodd;clip-rule:evenodd;fill:#BA291C;" d="M176.808,363.013c0,32.658,0,32.658,0,32.658l-25.416,0.975
				l12.421-13.892l-10.892-12.674L176.808,363.013z"/>
			<path style="fill-rule:evenodd;clip-rule:evenodd;fill:#BA291C;" d="M323.19,363.013c0,32.658,0,32.658,0,32.658l25.416,0.975
				l-12.421-13.892l10.892-12.674L323.19,363.013z"/>
		</g>
	</g>
</g>
<g id="TEXTS">
	<g>
		<text transform="matrix(1.2526 0 0 1 180.9351 393.1447)"><tspan x="0" y="0" style="fill:#143836; font-family:'PassionOne-Regular'; font-size:51.4634px;">P</tspan><tspan x="27.379" y="0" style="fill:#143836; font-family:'PassionOne-Regular'; font-size:51.4634px;">IZZA</tspan></text>
		<text transform="matrix(1 -0.0033 0.0033 1 199.3837 414.3977)"><tspan x="0" y="0" style="fill:#FFFFFF; font-family:'OpenSans-Extrabold'; font-size:14.6776px;">T</tspan><tspan x="7.294" y="0" style="fill:#FFFFFF; font-family:'OpenSans-Extrabold'; font-size:14.6776px;">AGLINE HERE</tspan></text>
	</g>
</g>
</svg>
